<svg xmlns="http://www.w3.org/2000/svg" viewBox="0 0 1235 650"><defs><clipPath id="c" clipPathUnits="userSpaceOnUse"><path fill="#fff" fill-rule="evenodd" stroke-width="41.8" d="M0 0v9750L18525 0H0z"/></clipPath><clipPath id="a"><path fill="#012169" d="M-1-1v31h52V-1H-1Z"/></clipPath></defs><g transform="matrix(0.92857, 0, 0, 0.92857, -229.824875, -67.220802)"><path fill="#012169" d="M248 72v700h1330V72H248Z"/><path fill="#fff" stroke="#fff" stroke-width="6.2" d="m-1-1 52 31m0-31L-1 30" clip-path="url(#a)" transform="matrix(25.576469, 0, 0, 22.434494, 271.776154, 93.659645)"/><path stroke="#C8102E" stroke-width="4" d="m-1-1 52 31m0-31L-1 30" clip-path="url(#b)" transform="matrix(25.576469, 0, 0, 22.434494, 271.776154, 93.659645)"/><path fill="#fff" d="M248 306h532V72h266v234h532v233h-532v233H780V539H248V306Z"/><path fill="#c8102e" d="M248 352h585V72h159v280h586v140H992v280H833V492H248V352Z"/><g clip-path="url(#c)" transform="matrix(0.071795, 0, 0, 0.071794, 247.504196, 72.391869)"><path fill="#b31942" d="M0 0h18525v9750H0"/><path stroke="#FFF" stroke-width="50" d="M0 75h1235m0 100H0m0 100h1235m0 100H0m0 100h1235m0 100H0" transform="matrix(14.999994, 0, 0, 15.000202, -0.001568, -0.001762)"/><path fill="#0a3161" d="M0 0h7410v5250H0"/><path fill="#FFF" d="m617 225 177 543-462-336h571L441 768zm0 1050 177 543-462-336h571l-462 336zm0 1050 177 543-462-336h571l-462 336zm0 1050 177 543-462-336h571l-462 336zm0 1050 177 543-462-336h571l-462 336zm618-3675 176 543-461-336h570l-461 336zm0 1050 176 543-461-336h570l-461 336zm0 1050 176 543-461-336h570l-461 336zm0 1050 176 543-461-336h570l-461 336zm618-3675 176 543-462-336h571l-462 336zm0 1050 176 543-462-336h571l-462 336zm0 1050 176 543-462-336h571l-462 336zm0 1050 176 543-462-336h571l-462 336zm0 1050 176 543-462-336h571l-462 336zm617-3675 176 543-461-336h570l-461 336zm0 1050 176 543-461-336h570l-461 336zm0 1050 176 543-461-336h570l-461 336zm0 1050 176 543-461-336h570l-461 336zm618-3675 176 543-462-336h571l-462 336zm0 1050 176 543-462-336h571l-462 336zm0 1050 176 543-462-336h571l-462 336zm0 1050 176 543-462-336h571l-462 336zm0 1050 176 543-462-336h571l-462 336zm617-3675 176 543-461-336h570l-461 336zm0 1050 176 543-461-336h570l-461 336zm0 1050 176 543-461-336h570l-461 336zm0 1050 176 543-461-336h570l-461 336zm618-3675 176 543-462-336h571l-462 336zm0 1050 176 543-462-336h571l-462 336zm0 1050 176 543-462-336h571l-462 336zm0 1050 176 543-462-336h571l-462 336zm0 1050 176 543-462-336h571l-462 336zm617-3675 176 543-461-336h570l-461 336zm0 1050 176 543-461-336h570l-461 336zm0 1050 176 543-461-336h570l-461 336zm0 1050 176 543-461-336h570l-461 336zm618-3675 176 543-462-336h571l-462 336zm0 1050 176 543-462-336h571l-462 336zm0 1050 176 543-462-336h571l-462 336zm0 1050 176 543-462-336h571l-462 336zm0 1050 176 543-462-336h571l-462 336zm617-3675 176 543-461-336h570l-461 336zm0 1050 176 543-461-336h570l-461 336zm0 1050 176 543-461-336h570l-461 336zm0 1050 176 543-461-336h570l-461 336zm618-3675 176 543-462-336h571l-462 336zm0 1050 176 543-462-336h571l-462 336zm0 1050 176 543-462-336h571l-462 336zm0 1050 176 543-462-336h571l-462 336zm0 1050 176 543-462-336h571l-462 336z"/></g><clipPath id="b"><path d="M25 15h26v15L25 15Zm0 0v15H-1l26-15Zm0 0H-1V-1l26 16Zm0 0V-1h26L25 15Z"/></clipPath></g></svg>