<svg xmlns="http://www.w3.org/2000/svg" xmlns:xlink="http://www.w3.org/1999/xlink" version="1.0" viewBox="0 0 800 500"><path fill="#fff" d="M667 333H267l266-166h267v166z"/><g id="c"><path id="a" fill="#f6b40e" stroke="#85340a" stroke-width="1.1" d="m397 251 28 62 2 1v-1l-24-64m-1 24c0 9 6 14 5 23-1 8 4 13 5 16v6c1 0 3-2 2-7 0-4-4-6-3-16s-4-13-3-22"/><use xlink:href="#a" width="100%" height="100%" transform="rotate(23 400 250)"/><use xlink:href="#a" width="100%" height="100%" transform="rotate(45 400 250)"/><use xlink:href="#a" width="100%" height="100%" transform="rotate(68 400 250)"/><path id="b" fill="#85340a" d="M404 274c1 9 6 13 5 22 2-7-3-12-3-21m-8-24 20 42-16-44"/><use xlink:href="#b" width="100%" height="100%" transform="rotate(23 400 250)"/><use xlink:href="#b" width="100%" height="100%" transform="rotate(45 400 250)"/><use xlink:href="#b" width="100%" height="100%" transform="rotate(68 400 250)"/></g><use xlink:href="#c" width="100%" height="100%" transform="rotate(90 400 250)"/><use xlink:href="#c" width="100%" height="100%" transform="rotate(180 400 250)"/><use xlink:href="#c" width="100%" height="100%" transform="rotate(-90 400 250)"/><circle cx="400" cy="250" r="27.8" fill="#f6b40e" stroke="#85340a" stroke-width="1.5"/><path id="h" fill="#843511" d="m409 244-4 3c2 2 7 2 10-1l-6-2zm0 0 4 2c-2 3-5 2-7 1 0-2 2-2 3-3z"/><use xlink:href="#d" width="100%" height="100%" transform="matrix(-1 0 0 1 800 0)"/><use xlink:href="#e" width="100%" height="100%" transform="matrix(-1 0 0 1 800 0)"/><use xlink:href="#f" width="100%" height="100%" transform="translate(19)"/><use xlink:href="#g" width="100%" height="100%" transform="matrix(-1 0 0 1 800 0)"/><path fill="#85340a" d="M396 254a2 2 0 1 0 2 3h5l1 1a2 2 0 0 0 1-4v1a1 1 0 0 1-2 0c0 1-1 2-3 2l-3-2-1 1-1-1 1-1zm2 6c-2 0-3 1-5 3l3-2h8l3 2c-2-2-3-3-5-3h-4Z"/><path fill="#85340a" d="m397 262-3 1h12c-4-2-5-1-6-1h-3z"/><path fill="#85340a" d="M394 263h-1c4 0 2 3 7 3s3-3 7-3c-5-1-3 2-7 2s-3-2-6-2z"/><path fill="#85340a" d="M404 270a4 4 0 0 0-8 0 4 4 0 0 1 8 0z"/><path id="e" fill="#85340a" d="M383 244c5-4 11-5 14-2l2 4c0 2 0 5-2 8 2-3 3-7 2-10v-2c-5-4-12-4-16 2z"/><path id="d" fill="#85340a" d="m390 243 5 1 2 2-3-2-4-1c-3 0-6 4-6 3 0 0 2-3 6-3z"/><use xlink:href="#h" width="100%" height="100%" transform="translate(-19)"/><circle id="f" cx="390.5" cy="246.1" r="1.9" fill="#85340a"/><path id="g" fill="#85340a" d="M385 247c4 3 8 3 10 2l1-2-2 1c-2 1-4 1-9-1z"/><path fill="#c60b1e" d="M0 0h800L0 500Z"/><path fill="#ffc400" d="M200 125h400L200 375H0V125Z"/><g stroke="#000" stroke-width=".4"><g transform="translate(-31)"><g stroke-width=".3"><path fill="#ad1519" stroke-linejoin="round" d="M168 222h-1l-1-1h-1v-1l-1-2 2-2h1l2-1h1l1-1h8l1 1h3l2 1 1 1 1 1v1l-1 1-1 1v1h-1l-8-1-8 1z"/><g fill="#c8b100"><ellipse cx="175.7" cy="215.7" rx="1.4" ry="2.5"/><ellipse cx="175.7" cy="215.7" rx=".6" ry="2.3"/><circle cx="175.7" cy="213" r=".9" stroke="none"/><path d="M177 213h-3 1v-3h1v1h1-1v2h1"/><path fill="none" d="M176 212a1 1 0 1 1-1 0"/><path d="M176 222h-5v-2l-1-2-3-3h1c1-1 3 1 5 4h5c2-3 4-5 6-4l-3 3v4z"/><path fill="none" d="m168 215 4 4m12-4-5 4"/></g><g id="i" fill="#c8b100"><path d="m169 224-1-1 8-1 7 1v1l-1 1-6-1-7 1v-1"/><path d="m176 227 6-1 1-1h-1l-6-1-7 1 1 1 6 1zm7-5h-1l-1-1h-4l-1-1-2 1h-3l-1 1h-2v1l8-1 7 1v-1z"/><path d="M176 219v1l1 1 1-1 1 1 2-1h-1 1v1l1 1 1-1 1 1 1-1-1 1-1 1v-1h-1l-1-1-2 1-1-1-1 1-1-1-2 1-1-1a2 2 0 0 1-2 0l-2 1-1 1-1-1-1-1h1l1 1v-1l1 1a1 1 0 0 0 1-2h1l1 1 1-1 1 1 1-1 1-1z"/><path stroke-linejoin="round" d="m176 222-8 1 8-1 7 1h1-1l-7-1z"/><path d="M165 221v-1h-1 2v1h-1zm2-1v1h-1l1-1m-2 1h1-1zm3 0v-1l1 1h-1zm1-1v1l1-1v-1h-1v1"/><path d="M170 218h-1l1 2h1v-2h-1m2 1v1h-1v-1h1"/><circle cx="170.5" cy="219.6" r=".5"/><path d="M173 220zm1-1v1l2-1h-2m2-2-1 1v1h1l1-1-1-1m2 2-1 1-1-1h2"/><circle cx="175.7" cy="219.2" r=".5"/><path d="M179 220h-1zm0-1v1h2v-1h-2"/><path d="M181 218h1l-1 2v-1l-1-1h1"/><path d="m183 220-1 1-1-1v-1h1l1 1"/><circle cx="180.9" cy="219.6" r=".5"/><path d="M183 221v-1 1zm3 0v-1h1-1v1zm-2-1v1h2l-2-1m2 1h-1 1z"/></g><g id="j" fill="none"><path fill="#ad1519" d="M168 224h1-1"/><path fill="#058e6e" d="M171 224h-1v-1h2v1h-1"/><circle cx="173.2" cy="223.3" r=".4" fill="#fff"/><path fill="#ad1519" d="M176 223h-2 3-1"/><circle cx="178.2" cy="223.3" r=".4" fill="#fff"/><path fill="#058e6e" d="M181 224h1l-1-1h-1v1"/><path fill="#ad1519" d="M183 224h-1 1"/><path fill="#ad1519" stroke-linejoin="round" d="M176 226h-7a27 27 0 0 1 13 0h-6z"/><path stroke-width="0" d="M177 226v-1m-1 1v-1m0 1v-1m-1 1v-1m0 1v-1m0 1v-1m-1 1v-1"/><path stroke-width=".1" d="M174 226v-1m0 1v-1m0 1v-1m-1 1v-1m0 1v-1m-1 1v-1m1 1v-1m0 1v-1m-1 1v-1m0 1v-1m0 1v-1m-1 1v-1m0 1v-1m0 1v-1m0 1v-1m0 1v-1m-1 1v-1"/><path stroke-width=".2" d="M170 226v-1"/></g></g><g id="k"><g fill="#005bbf"><path d="m191 331-4-1-4-1-3 1-4 1-4-1-4-1-4 1-4 1v2l4-1 4-1 4 1 4 1 4-1 3-1 4 1 4 1z"/><path fill="#ccc" d="m191 333-4-1-4-1-3 1-4 1-4-1-4-1-4 1-4 1v2h4l4-1 4 1 4 1 4-1 3-1 4 1h4v-2"/><path d="m191 336-4-1-4-1-3 1h-8l-4-1-4 1-4 1v2l4-1 4-1 4 1 4 1 4-1 3-1 4 1 4 1v-3"/><path fill="#ccc" d="m191 340-4-1h-7l-4 1-4-1h-8l-4 1v-2l4-1 4-1 4 1 4 1 4-1 3-1 4 1 4 1v2"/><path d="m191 343-4-1-4-1-3 1-4 1-4-1-4-1-4 1-4 1v-3l4-1h8l4 1 4-1h7l4 1z"/></g><g fill="#c8b100"><path stroke-linejoin="round" d="M167 321c0 2-1 3-3 3h23c-1 0-3-1-3-3h-17z"/><path d="M167 319h17l1 1-1 1h-17l-1-1 1-1zm-3 11h23v-6h-23z"/></g><path fill="#ccc" d="M168 318h16v-79h-16Z"/><path fill="none" d="M179 239v79m2-79v79"/><g fill="#c8b100"><path d="M165 232h22v-5h-22z"/><path stroke-linejoin="round" d="M167 236h17l-1-1 2-1h-18l1 1-1 1z"/><path d="M167 236h17l1 1-1 1h-17l-1-1 1-1zm0-4h17l1 1-1 1h-17l-1-1 1-1z"/></g></g><g id="l" fill="#ad1519"><path d="m162 299-3 3 2 2 2 4a6 6 0 0 0-1-9z"/><path stroke-linejoin="round" d="M200 268a52 52 0 0 0-24-2c-10 2-17 6-16 9l-4-8c-1-4 7-8 18-10l10-1c7 0 13 1 16 3v9"/><path d="M168 278c-5 0-8-1-8-3-1-1 1-3 4-5l4 1v7m16-6 6 2v1c0 1-2 3-6 5v-8"/><path stroke-linejoin="round" d="M157 294c0-1 4-4 11-6l8-4c8-3 15-8 14-9v-1l1 9c1 1-5 5-13 9l-10 4c-5 2-9 5-9 6l-2-8z"/></g><g stroke-width=".3"><path fill="#ad1519" d="m325 220-1 1h-4l-1 1h-3l-1-1-1-1v-1l3-2h16c2 1 3 1 2 2v2h-1v1h-3l-1-1h-4l-1-1z"/><g fill="#c8b100"><ellipse cx="324.8" cy="216.2" rx="1.4" ry="2"/><ellipse cx="324.9" cy="216.2" rx=".6" ry="1.8"/><circle cx="324.8" cy="213.9" r=".9" stroke="none"/><path d="M326 214h-2 1v-2h-1 1v-1 1h1-1v2h1"/></g><g fill="none" stroke-width=".2"><path stroke-linecap="round" stroke-width=".3" d="M314 220v-1c0-2 1-3 3-3h1"/><path stroke-width=".3" d="M319 218v-1c0-1 1-2 3-2h1m7 3v-1l-2-2h-2"/><path stroke-linecap="round" stroke-width=".3" d="M335 220v-1c0-2-1-3-2-3h-2"/><circle cx="313.6" cy="218.7" r=".4"/><circle cx="313.7" cy="217.1" r=".4"/><circle cx="314.8" cy="215.9" r=".4"/><circle cx="316.1" cy="215.3" r=".4"/><circle cx="317.5" cy="215.3" r=".4"/><circle cx="318.4" cy="217.1" r=".4" fill="#fff"/><circle cx="318.7" cy="215.6" r=".4"/><circle cx="319.8" cy="214.6" r=".4"/><circle cx="321.2" cy="214.2" r=".4"/><circle cx="322.7" cy="214.2" r=".4"/><circle cx="326.9" cy="214.2" r=".4"/><circle cx="328.4" cy="214.2" r=".4"/><circle cx="329.8" cy="214.6" r=".4"/><circle cx="330.9" cy="215.6" r=".4"/><circle cx="331.2" cy="217.1" r=".4" fill="#fff"/><circle cx="332.1" cy="215.3" r=".4"/><circle cx="333.5" cy="215.3" r=".4"/><circle cx="334.9" cy="215.9" r=".4"/><circle cx="335.9" cy="217.1" r=".4"/><circle cx="336" cy="218.7" r=".4"/></g><use xlink:href="#i" width="100%" height="100%" x="149"/><use xlink:href="#j" width="100%" height="100%" x="149"/></g><use xlink:href="#k" width="100%" height="100%" x="149"/><use xlink:href="#l" width="100%" height="100%" transform="matrix(-1 0 0 1 501 0)"/><path fill="#c8b100" stroke="none" d="M166 265c2-1 4-2 3-3 0-1-1-2-3-1l-3 1 3 6h1v-1l-1-2zm-1-3 1-1 1 1v2h-1l-1-2m8-3h-1l-1 1 1 6 5-1v-1l-3 1-1-6m9 6 2-7h-1l-2 5-2-5h-2l4 7h1m9-5v-1l-2-1-3 2c0 2 4 2 4 4h-2l-1-1h-1v1l2 1c2 0 3-1 3-2 0-2-3-2-3-3l1-1 2 1m119 5 2-7h-1l-1 5-3-4h-2l4 6h1m6-7h-1v7h4v-1h-3v-6m8 1 2 1v-1l-6-1v1h2l-1 6h2l1-6m2 7h2v-3h1v1l1 2 1 1h1v-1l-2-3 3-1-1-2h-2l-2-1-2 7m3-6 2 1v1l-2 1v-3m9 7-1 3h1l1 1 1-8a8 8 0 0 1-1 0l-7 4h1l2-1 3 1zm-2-1 2-2v3l-2-1"/></g><path fill="#ad1519" stroke-width=".3" d="m219 183 16 2 9 2 7 1c2 0 6 0 10 2l8 5-2 1v4l-4 5-2 2-6 4h-2l-1 3-33-4-33 4-1-3h-2l-5-4-2-2-5-5v-4l-2-1 8-5c4-2 8-2 11-2a34 34 0 0 0 15-3l16-2z"/><g fill="#c8b100" transform="translate(-31)"><path d="m225 191 2 2 2-4a8 8 0 0 1-4-7c0-5 6-8 12-8l9 2v-2l-9-2c-7 0-13 5-14 10v1c0 2 1 5 3 7l-1 1"/><path d="M225 191c-2-2-4-4-4-7 0-4 2-7 6-9a9 9 0 0 0-4 8c0 2 1 5 3 7l-1 1"/><path d="M202 195a9 9 0 0 1-1-10c2-5 9-8 17-8l6 1-1 1h-6c-7 0-13 3-15 7v3l2 6-2 4-2-1z"/><path d="m205 180-4 5a9 9 0 0 0 1 10l-1 2c-2-1-3-4-3-6 0-4 3-8 7-11zm45-9c2 0 3 1 4 3v6l1 8-5 5-5-5 1-8v-6c1-2 2-3 4-3z"/><path d="m250 173 2 1v6l2 8-4 3-4-3 2-8v-6l2-1zm25 18-2 2-2-4a8 8 0 0 0 4-7c0-5-6-8-12-8l-9 2v-2l9-2c7 0 14 5 14 10v1c0 2-1 5-3 7l1 1"/><path d="M275 191c2-2 4-4 4-7 0-4-2-7-6-9a9 9 0 0 1 4 8c0 2-1 5-3 7l1 1"/><path d="M298 195a9 9 0 0 0 1-10c-2-5-9-8-16-8l-7 1 1 1h6c7 0 13 3 15 7v3l-2 6 2 4 2-1z"/><path d="m295 180 4 5a9 9 0 0 1-1 10l1 2c2-1 3-4 3-6 0-4-3-8-7-11z"/><ellipse cx="250.1" cy="167.3" fill="#005bbf" stroke-width=".3" rx="4.4" ry="4.2"/><path stroke-width=".3" d="M249 156v2h-3v2h3v7h-3v2h8v-2h-3v-7h3v-2h-3v-2z"/></g><g fill="#fff" transform="translate(-31)"><ellipse cx="250" cy="188.9" rx="1.9" ry="1.8"/><ellipse cx="250" cy="185.4" rx="1.9" ry="1.8"/><ellipse cx="250" cy="181.6" rx="1.5" ry="1.4"/><ellipse cx="250" cy="178.2" rx="1.1" ry="1"/><ellipse cx="250" cy="175.2" rx=".9" ry=".8"/><ellipse cx="198.9" cy="198.7" rx="1.1" ry="1"/><ellipse cx="197.4" cy="196" rx="1.1" ry="1"/><ellipse cx="196.4" cy="192.9" rx="1.1" ry="1"/><ellipse cx="196.3" cy="189.6" rx="1.1" ry="1"/><ellipse cx="197.1" cy="186.4" rx="1.1" ry="1"/><ellipse cx="198.8" cy="183.4" rx="1.1" ry="1"/><ellipse cx="201.1" cy="181" rx="1.1" ry="1"/><ellipse cx="203.7" cy="179" rx="1.1" ry="1"/><ellipse cx="206.8" cy="177.4" rx="1.1" ry="1"/><ellipse cx="210" cy="176.2" rx="1.1" ry="1"/><ellipse cx="213.7" cy="175.5" rx="1.1" ry="1"/><ellipse cx="217.1" cy="175.4" rx="1.1" ry="1"/><ellipse cx="220.5" cy="175.5" rx="1.1" ry="1"/><ellipse cx="224.2" cy="190.3" rx="1.1" ry="1"/><ellipse cx="222.3" cy="187.6" rx="1.1" ry="1"/><ellipse cx="221.4" cy="184.8" rx="1.1" ry="1"/><ellipse cx="221.5" cy="181.6" rx="1.1" ry="1"/><ellipse cx="222.2" cy="178.4" rx="1.1" ry="1"/><ellipse cx="223.8" cy="175.5" rx="1.1" ry="1"/><ellipse cx="226.4" cy="173.5" rx="1.1" ry="1"/><ellipse cx="229.4" cy="171.8" rx="1.1" ry="1"/><ellipse cx="232.7" cy="170.8" rx="1.1" ry="1"/><ellipse cx="236.1" cy="170.2" rx="1.1" ry="1"/><ellipse cx="239.5" cy="170.3" rx="1.1" ry="1"/><ellipse cx="243" cy="170.9" rx="1.1" ry="1"/><ellipse cx="246.2" cy="172" rx="1.1" ry="1"/><ellipse cx="253.8" cy="172" rx="1.1" ry="1"/><ellipse cx="257" cy="170.9" rx="1.1" ry="1"/><ellipse cx="260.5" cy="170.3" rx="1.1" ry="1"/><ellipse cx="263.9" cy="170.2" rx="1.1" ry="1"/><ellipse cx="267.3" cy="170.8" rx="1.1" ry="1"/><ellipse cx="270.6" cy="171.8" rx="1.1" ry="1"/><ellipse cx="273.6" cy="173.5" rx="1.1" ry="1"/><ellipse cx="276.2" cy="175.5" rx="1.1" ry="1"/><ellipse cx="277.9" cy="178.4" rx="1.1" ry="1"/><ellipse cx="278.6" cy="181.6" rx="1.1" ry="1"/><ellipse cx="278.7" cy="184.8" rx="1.1" ry="1"/><ellipse cx="277.7" cy="187.6" rx="1.1" ry="1"/><ellipse cx="275.8" cy="190.3" rx="1.1" ry="1"/><ellipse cx="279.6" cy="175.5" rx="1.1" ry="1"/><ellipse cx="282.9" cy="175.4" rx="1.1" ry="1"/><ellipse cx="286.4" cy="175.5" rx="1.1" ry="1"/><ellipse cx="290" cy="176.2" rx="1.1" ry="1"/><ellipse cx="293.2" cy="177.4" rx="1.1" ry="1"/><ellipse cx="296.4" cy="179" rx="1.1" ry="1"/><ellipse cx="299" cy="181" rx="1.1" ry="1"/><ellipse cx="301.2" cy="183.4" rx="1.1" ry="1"/><ellipse cx="302.9" cy="186.4" rx="1.1" ry="1"/><ellipse cx="303.7" cy="189.6" rx="1.1" ry="1"/><ellipse cx="303.6" cy="192.9" rx="1.1" ry="1"/><ellipse cx="302.6" cy="196" rx="1.1" ry="1"/><ellipse cx="301.1" cy="198.7" rx="1.1" ry="1"/></g><g fill="#c8b100" transform="translate(-31)"><path d="M250 226c-12 0-23-1-31-4l-1-1 1-1a130 130 0 0 1 62 0l1 1-1 1c-8 3-19 4-31 4"/><path d="M250 216c-12 0-23 2-31 4l-1-3-2-3a159 159 0 0 1 68 0l-2 3v3c-8-2-20-4-32-4"/><path d="M250 210c-13 0-25 2-34 4h-1v-1a126 126 0 0 1 70 0l1 1h-2c-8-2-20-4-34-4"/><path d="M250 200h1v2c0 2 2 4 5 4 2 0 4-1 5-3v-2l1 2c0 3 2 4 5 4a5 5 0 0 0 4-5l2-2 1 2-1 2c0 3 2 5 5 5l4-2 1-1v1c0 2 1 3 2 3l4-1 4-4v2l-4 4c-1 1-3 2-4 1-2 0-3-1-3-2l-4 1c-3 0-5-2-6-4l-5 2c-3 0-5-1-6-3-1 2-3 2-5 2s-5-1-6-3c-1 2-3 3-6 3-2 0-3 0-5-2a7 7 0 0 1-10 1c-1 2-4 4-7 4l-3-1-3 2c-2 1-3 0-5-1l-4-4 1-2 3 4 4 1c2 0 2-1 2-3v-1l1 1 4 2c3 0 5-2 5-5v-4l2 2c0 3 2 5 5 5 2 0 4-1 5-4v-2l1 2c0 2 2 3 4 3a5 5 0 0 0 5-6h1"/><path d="M208 206v-1h-3l-2-3h-4c0-2 2-3 3-3l3 1v-1l2 2v4l1-2 2-2h2v1l3 1-2 2a13 13 0 0 0 1 1h-1l-3 1-2-1"/><path fill="#ad1519" d="M205 205h3v2h-2l-1-2"/><path fill="#fff" d="m216 206 1-2 2 1-1 2-2-1"/><path d="m226 202-1-1 1-1-2-1h-4a6 6 0 0 0 1 1l-3 2 4 1-1 1h1l3-1 1-1m0-10c1 0 2 1 2 3l1-1h1v1l-1 2v2h-2l-1 1-2-2-1-2v-1h2l1-3m3 9a2 2 0 0 0 0-2l1-1 2-1 1-1v2l4 1-3 2a6 6 0 0 0 0 1h-3l-2-1"/><ellipse cx="227.4" cy="200.4" fill="#ad1519" rx="2.2" ry="2.1"/><path fill="#fff" d="m238 202 1-2 1 2-1 1-1-1"/><path d="m249 200-1-1v-2l-1-1-3-1h-1a6 6 0 0 0 0 2l-3 2 3 1v2h1l3-1 2-1m1-12 2 4h1l1-1v2l-1 2-1 2a2 2 0 0 0-4 0l-1-2v-2l-1-2 1 1h1l2-4m2 12a2 2 0 0 0 0-3l2-1 2-1h2l-1 1v1l4 2-4 1a7 7 0 0 0 1 2h-2l-2-1-2-1"/><ellipse cx="250.1" cy="198.5" fill="#ad1519" rx="2.2" ry="2.1"/><path fill="#fff" d="m263 202-1-2-2 2 1 1 2-1"/><path d="M271 201v-1l1-1-2-1-2-1-1-1v2l-3 1 3 2-1 1h4l1-1m4-9-3 3v-1h-1v3l1 2a2 2 0 0 1 3 1l1-2 1-2 1-1h-2l-1-3m-1 10a2 2 0 0 0 1-2l2-1h3l-1 1c2 0 3 1 3 2l-3 1v1h-1l-2-1-2-1"/><ellipse cx="273" cy="200.4" fill="#ad1519" rx="2.2" ry="2.1"/><path fill="#fff" d="m284 206-1-2-1 1v2l2-1"/><path d="m292 206 1-1h2l3-3h3c0-2-1-3-3-3l-2 1-1-1-2 2v4-2l-3-2h-1v1l-4 1 3 2-1 1h-1 2l2 1 2-1"/><path fill="#ad1519" d="M295 205h-2l-1 2h3v-2"/></g><g fill="none"><path fill="#ad1519" stroke-linejoin="round" d="M219 225c-11 0-21-2-28-4 7-2 17-3 28-3s22 1 29 3c-7 2-18 4-29 4z"/><path stroke-width=".1" d="M227 224v-6m-3 6v-6m-2 7v-7m-2 7v-7m-2 7v-7"/><path stroke-width=".2" d="M217 225v-7m-2 7v-7"/><path stroke-width=".3" d="M214 225v-7m-3 6v-6m1 6v-6"/><path d="M208 224v-5m1 5v-6m-4 6v-5m1 5v-5m1 5v-5"/><path stroke-width=".5" d="M203 224v-5m-1 4v-4"/><path stroke-width=".6" d="M201 223v-4m-2 4-1-3m2 3v-4m-3 4v-3"/><path stroke-width=".7" d="M196 222v-2m-1 2v-2"/><path stroke-width=".8" d="M193 222v-1"/><path stroke-width=".9" d="M192 222v-1"/><path d="M189 222a117 117 0 0 1 60 0"/><path fill="#ad1519" d="m186 217 1-1h4l-3 2-2-1"/><path fill="#fff" d="m193 215 1-1 2 1-2 1-1-1"/><path fill="#058e6e" d="M203 215h-2l-2-1 1-1h5l1 1-1 1h-2"/><path fill="#fff" d="m210 213 1-1 1 1-1 1-1-1"/><path fill="#ad1519" d="M219 214h-3l-1-1 1-1h7l1 1-1 1h-4"/><path fill="#fff" d="m227 213 1-1 1 1-1 1-1-1"/><path fill="#058e6e" d="M236 215h2l2-1-1-1h-5l-1 1 1 1h2"/><path fill="#fff" d="m243 215 1-1 2 1-2 1-1-1"/><path fill="#ad1519" d="m253 217-1-1h-4l3 2 2-1"/></g><g stroke-width=".5"><path fill="#ccc" d="M220 344c-13 0-26-3-37-8-8-4-14-12-14-21v-34h101v34c0 9-5 17-13 21-11 5-24 8-37 8z"/><path fill="#ffd691" d="M222 330c2 0 3 2 3 4s-2 4-5 4-5-2-5-4 1-4 3-4l-1-1v-1h1l1 1v-1h2v1l1-1h1l-1 1v1"/><path fill="#058e6e" d="m220 340-6-3h-6l2 2 3 2 7-1m1 1s2-3 5-3h6l-1 1-4 2-5-1-1 1"/><path fill="#ad1519" d="M220 337a5 5 0 0 1 0-7 5 5 0 0 1 0 7"/><path fill="#058e6e" d="m219 343 1-3v-2l1 2v2h-1l-1 1"/><g fill="#c8b100"><path fill="#ad1519" d="M220 315c0 13-12 23-25 23-14 0-26-10-26-23v-34h51v34"/><path d="M169 314c0 7 3 12 6 16v-50h-6zm11 20 6 3v-57h-6zm12 4h5v-58h-5zm11-1 6-3v-54h-6zm11-8c3-2 5-7 6-13v-36h-6z"/></g><g transform="translate(-31)"><path fill="#ad1519" d="M301 281v34c0 13-12 23-26 23-13 0-25-10-25-23v-34h51"/><path id="m" fill="#c8b100" stroke="#c8b100" stroke-width=".3" d="m273 306-4-5-2 1-3-4 1-1-5-6h-1v4h2v5h-2v4l2 2h3l1-2h4l1 2zm-7-18v1h2v-1zm-8 20 2-1-2-1-1 1 1 1zm16-10h-1v-5h1v-2l-1-2h-3l-1 2h-4l-1-2h-3v1l5 6 2-1 3 4-1 1 4 5v-1zm-7-1-1 1 2 2 1-1zm8 36-2-2-5-1 1-2 4 1 1-1v-6h-1v-5h1v-8l-4 5 1 1-3 4-1-1-4 3v3l3 3v2l-4-4h-3v-4l-1-5h1l1 4h2l3-3-1-2 3-3 2 1 4-5h-3l-1 1h-4l-1-1h-3l-2 1v4h-1v-4c-2 0-2-1-2-2l2-3v-4h-2v-5h2v-4c-1 0-2-1-2-3 0-1 1-2 3-2l2 2h3l1-2h4l1 2h3l2-2v8h-1v3h1v21h-1v3h1zm-6-18-1-1-2 2 1 1zm-10-19h-1v3h1zm9 12v-2h-2v2zm-10 9h-2v-4l2-1v5zm1-5h2v5h-1l-1-2zm11 17 1-2-5-2-1 1 5 3zm-1 1-1 1-4-2v-1l5 2z"/><use xlink:href="#m" width="100%" height="100%" transform="matrix(-1 0 0 1 550 0)"/><path fill="#058e6e" stroke="none" d="M273 307c0-2 1-3 2-3 2 0 3 1 3 3 0 1-1 3-3 3l-2-3"/></g><g fill="#c8b100"><path fill="#ad1519" d="M169 281h51v-55h-51Z"/><path d="M187 238h-1v-1h-2v4h2v3h-4v7h2v15h-4v8h29v-8h-4v-15h2v-7h-3v-3h1v-4h-1v1h-1v-1h-2v1h-1v-1h-2v4h2v3h-4v-8h2v-4h-2v1h-1v-1h-1v1h-1v-1h-2v4h2v8h-4v-3h2v-4h-2v1h-1v-1h-1zm-7 36h29m-29-2h29m-29-2h29m-29-2h29m-29-2h29m-25-2h21m-21-2h21m-21-2h21m-21-1h21m-21-2h21m-21-2h21m-21-2h21m-23-2h25m-25-2h25m-25-2h25m-25-1h25m-21-2h18m-11-2h3m-3-2h3m-3-2h3m-3-2h3m-5-2h7m-12 8h3m-5-2h7m-7 34v-2m0-2v-2m-2 2v2m4 0v-2m2 4v-2m0-2v-2m0-2v-2m0-2v-2m-2 8v-2m-4 2v-2m7 0v2m2-2v-2m-5-2v2m3-2v2m4-2v2m-2-2v-2m2-1v1m0-5v2m-2-4v2m2-4v2m-4-2v2m-3-2v2m-2-4v2m4-2v2m3-2v2m2-4v2m-4-2v2m-3-2v2m-2-3v1m7-1v1m-3-5v2m16-2h-4m5-2h-7m7 34v-2m0-2v-2m2 2v2m-3 0v-2m-2 4v-2m0-2v-2m0-2v-2m0-2v-2m2 8v-2m3 2v-2m-7 0v2m-2-2v-2m6-2v2m-4-2v2m-4-2v2m2-2v-2m-2-1v1m0-5v2m2-4v2m-2-4v2m4-2v2m4-2v2m1-4v2m-3-2v2m-4-2v2m-2-4v2m4-2v2m4-2v2m1-3v1m-7-1v1m4-5v2m-7 18v-2m0-5v-2m0 6v-2m0-6v-2m0-2v-1m0-4v-2m0-2v-2m-9 5h3m4-5h3m4 5h4"/><path d="M199 274v-5c0-1 0-4-4-4-5 0-5 3-5 4v5z"/><path d="M191 269h-2l1-3 2 2-1 1zm4-2 2-2-2-1-2 1 1 2zm3 2h2l-1-3-2 2 1 1zm-7-8v-5c0-2-1-3-3-3-1 0-2 1-2 3v5zm7 0v-5c0-2 1-3 3-3 1 0 2 1 2 3v5zm-9-13 1-4h-5l1 4zm7 0 1-4h-5l1 4zm4 0-1-4h5v4z"/><path fill="#0039f0" stroke="none" d="M198 274v-5s-1-2-3-2c-3 0-4 2-4 2v5zm-7-14v-4c0-1-1-2-3-2l-2 2v4zm8 0v-4c0-1 0-2 2-2l2 2v4z"/></g><path fill="#ccc" d="M220 281h50v-55h-50Z"/><path fill="#db4446" stroke-width=".4" d="M245 239v-1h-2l-2-1-2-1h-3l2 1 2 2h5z"/><g fill="none" stroke-width=".4"><path fill="#ed72aa" d="M253 237v5-1h-1a3506 3506 0 0 0 1 2l1 1v2l-1-1-1-1v4l-1-2h-1l1 2-1 2v-1l-1-1v1l2 5c1 1 2 4 6 3 3-1 2-5 1-7l-1-5v-3l1-3 1-3v-3l1 2v1l1-1 2-2v2l-2 3 1-1h1l-1 2-1 2-2 2v5l2 5c0 1 0 4-2 5l-4 1-1 3 1 3h2v2l-1 2-1 2v2l1 1h-2l-1-1v1l-1-1h-1l1-1v-1h-1c0 1 0 1 0 0v-1s-1 0 0 0h1l1-1v-1l-1-1v-1 2l-1-1-1-1v1l1 1-1-1-1-1-1-1v-2l1-1h-3v5l-1 1h-5v1h-2v-2l-1 1-1-1v-2l2 1v-1l-1-1h1l1-1v1l2 1h2v-2h-1v1-3l-1 1v1-4l2-1h3l2-1-4-2-2-2-1-1h-1l-1 1-1 1v-2l-1 2-1 1v-2l-1 1h-2v2h-2v-1h-1v-2h1l-1-1v-1l1-1 1 1h2l2-1 1-1-1-1-1-1-2-1h-1l1-1h-1l-1-1-1 1 1-1h1l-1-1v-1h-2l-1-1v-1h1v-1l-1-1h1v-1l2 1v-2l1 1h1v1l-1 1 1 2 2 1 2 1h5l1-1-1-1 1-1 2-1-1-2-2-1v-1h2l2-1v-1h2l2 2 3 2"/><path d="m238 243-1 1v1h4l-1 1 1 1-1 2h1l2-1 1-1v3l1-1h1v-2 2l1 2 1-2v-2l1 1m-12 1 1-1 1-1h1m1 5 2-1 1-1m4 7 2 3-2 2"/></g><path stroke-width=".3" d="M242 236v-1l1 1h-1z"/><path stroke-width=".1" d="M246 235v-1l1 1 1 1-1-1z"/><path stroke-width=".3" d="M242 240h1-1m1 0h1-1m0-3h1-1m1 0h1l-1 1v-1"/><path fill="#db4446" stroke-width=".4" d="M231 236h1l1 1v-1l-1-2v1l-1 1zm-2 1-1-1-2 1h1l1 1h1v-1zm-1 3-1 1-1 1h2v-2zm2 10h-1l-1 1h2v-1zm0 3-2 1v1h2v-2zm1 3v1l1 1v-2h-1zm7 7-1-1-1 1h1v1h1v-1zm-2 3h-1l-1 2 1-1h1v-1zm2 3v1l1 1v-1l1-1zm13 1h-2l-1 2 2-1h1v-1zm0 3v2-1h1v-1h-1zm3 1v1l1 1v-1l1-1h-2z"/><g fill="#c8b100" stroke-width=".3"><path d="M252 233h-2v-2 1h-1l-1-2v2l-1 1 3 2 3 2h1l1-1h1-2v-2l-1 1v-1h-1v-1z"/><path fill="#000" stroke-width=".1" d="M250 233v1-1zm1 1c-1 0-1 0 0 0m-2-1h1-1m-1-1v1-1zm4 3zm1 1v-1h-1l1 1m0 0c1 0 0 0 0 0z"/><path d="M251 230h-1v1h1v-1"/><path d="M251 230h-1v1h1v-1m-2 1h1-1m2 1-1-1h1v1m-1-1v1-1zm-2-1h-1v-1h1v1zm1 1h-1v-1h1v1m-1-1v1-1zm5 2h-1v1l1-1m-2 0v1h1v-1h-1m2 1v1l-1-1h1m-1 0v-1 1zm3 1h-1v-1l1 1m0 1h-1v-1l1 1m-2-1 1 1v-1h-1m1 1v-1 1zm2 1v1h1v-1h-1zm-1 0 1 1v-1h-1"/><path d="M256 237v-1h-1v1h1z"/></g><g stroke-width=".6" transform="translate(-31)"><ellipse cx="250.4" cy="281" fill="#ad1519" rx="16.3" ry="18.3"/><ellipse cx="250.4" cy="281" fill="#005bbf" rx="11.4" ry="13.4"/><g id="n" fill="#c8b100" stroke-width=".3"><path stroke-linejoin="round" d="m245 272-1 3v2l-1-1-2 2h1v1h1l1 1h-1v1h1l-1 2 1-1 1 1 1-1 1 1-1-2h1v-1h-1l1-1h1l1-1-2-2-1 1v-2l-1-3z"/><path d="M243 281h4v-1h-4z"/></g><use xlink:href="#n" width="100%" height="100%" x="11"/><use xlink:href="#n" width="100%" height="100%" x="5" y="9"/></g></g></g><path fill="#fff" d="M330 333h-63l42-26h42v26Z"/><path fill="#74acdf" d="M600 500H0l267-167h533v167Zm-67-333L800 0v167z"/></svg>